# xmcd CD database file
#
# Track frame offsets:
#	150
#	27047
#	68316
#	90221
#	139951
#	159480
#	192095
#	220132
#	249183
#	278784
#	295758
#
# Disc length: 4363 seconds
#
# Revision: 0
# Processed by: cddbd v1.5.2PL0 Copyright (c) Steve Scherf et al.
# Submitted via: CDex 1.51
#
DISCID=8a11090b
DTITLE=I'm Sorry I Haven't A Clue - Humph Celebration Concert CD2
DYEAR=2011
DGENRE=Jazz
TTITLE0=A Good Buzz - The Humphrey Lyttelton Band
TTITLE1=Mornington Crescent - Jack Dee and The ISIHAC Team
TTITLE2=Under A Blanket Of Blue - Stacey Kent and Jim Tomlinson
TTITLE3=One Sone To The Tune Of Another - Sandi Toksvig and the ISIHAC Team
TTITLE4=Heavenless - The Humphrey Lyttelton Band and Annie Whitehead
TTITLE5=Till The End Of Time - Elkie Brooks
TTITLE6=Every Day I Have The Blues - The Humphrey Lyttelton Band and Elkie Brooks
TTITLE7=Pensioners' Film Club - Jeremy Hardy and The ISIHAC Team
TTITLE8=Bad Penny Blues - Jools Holland, Tony Fisher, Dave Green and Charlie Watts
TTITLE9=Humph's Celebration Boogie - The A,B,C and D of Boogie Woogie With Jools Holland
TTITLE10=Frankie and Johnnie - Finale With Entire Cast
EXTD=YEAR: 2011
EXTT0=
EXTT1=
EXTT2=
EXTT3=
EXTT4=
EXTT5=
EXTT6=
EXTT7=
EXTT8=
EXTT9=
EXTT10=
PLAYORDER=
